<svg width="27" height="30" viewBox="0 0 27 30" fill="none" xmlns="http://www.w3.org/2000/svg">
<g filter="url(#filter0_d_1_1288)">
<path fill-rule="evenodd" clip-rule="evenodd" d="M16.9358 15.1667L16.6325 14.8742C17.6942 13.6392 18.3333 12.0358 18.3333 10.2917C18.3333 6.4025 15.1808 3.25 11.2917 3.25C7.4025 3.25 4.25 6.4025 4.25 10.2917C4.25 14.1808 7.4025 17.3333 11.2917 17.3333C13.0358 17.3333 14.6392 16.6942 15.8742 15.6325L16.1667 15.9358V16.7917L20.8762 21.4918C21.2669 21.8817 21.8995 21.8813 22.2897 21.4911L22.4911 21.2897C22.8813 20.8995 22.8817 20.2669 22.4918 19.8762L17.7917 15.1667H16.9358ZM6.41667 10.2917C6.41667 7.59417 8.59417 5.41667 11.2917 5.41667C13.9892 5.41667 16.1667 7.59417 16.1667 10.2917C16.1667 12.9892 13.9892 15.1667 11.2917 15.1667C8.59417 15.1667 6.41667 12.9892 6.41667 10.2917Z" fill="#C2D1D9"/>
<mask id="mask0_1_1288" style="mask-type:luminance" maskUnits="userSpaceOnUse" x="4" y="3" width="19" height="19">
<path fill-rule="evenodd" clip-rule="evenodd" d="M16.9358 15.1667L16.6325 14.8742C17.6942 13.6392 18.3333 12.0358 18.3333 10.2917C18.3333 6.4025 15.1808 3.25 11.2917 3.25C7.4025 3.25 4.25 6.4025 4.25 10.2917C4.25 14.1808 7.4025 17.3333 11.2917 17.3333C13.0358 17.3333 14.6392 16.6942 15.8742 15.6325L16.1667 15.9358V16.7917L20.8762 21.4918C21.2669 21.8817 21.8995 21.8813 22.2897 21.4911L22.4911 21.2897C22.8813 20.8995 22.8817 20.2669 22.4918 19.8762L17.7917 15.1667H16.9358ZM6.41667 10.2917C6.41667 7.59417 8.59417 5.41667 11.2917 5.41667C13.9892 5.41667 16.1667 7.59417 16.1667 10.2917C16.1667 12.9892 13.9892 15.1667 11.2917 15.1667C8.59417 15.1667 6.41667 12.9892 6.41667 10.2917Z" fill="white"/>
</mask>
<g mask="url(#mask0_1_1288)">
<rect x="1" width="26" height="26" fill="white" stroke="black"/>
</g>
</g>
<defs>
<filter id="filter0_d_1_1288" x="-3" y="0" width="34" height="34" filterUnits="userSpaceOnUse" color-interpolation-filters="sRGB">
<feFlood flood-opacity="0" result="BackgroundImageFix"/>
<feColorMatrix in="SourceAlpha" type="matrix" values="0 0 0 0 0 0 0 0 0 0 0 0 0 0 0 0 0 0 127 0" result="hardAlpha"/>
<feOffset dy="4"/>
<feGaussianBlur stdDeviation="2"/>
<feComposite in2="hardAlpha" operator="out"/>
<feColorMatrix type="matrix" values="0 0 0 0 0 0 0 0 0 0 0 0 0 0 0 0 0 0 0.25 0"/>
<feBlend mode="normal" in2="BackgroundImageFix" result="effect1_dropShadow_1_1288"/>
<feBlend mode="normal" in="SourceGraphic" in2="effect1_dropShadow_1_1288" result="shape"/>
</filter>
</defs>
</svg>
